# xmcd CD database file
#
# Track frame offsets:
#	150
#	21075
#	40535
#	58115
#	79952
#	99359
#	124887
#	144539
#	169017
#	187152
#	210252
#	225508
#	252868
#	281365
#
# Disc length: 4100 seconds
#
# Revision: 0
# Processed by: cddbd v1.4PL0 Copyright (c) Steve Scherf et al.
# Submitted via: CDex 1.50
#
DISCID=b810020e
DTITLE=Celia Cruz - Exitos eternos
DYEAR=2003
DGENRE=Salsa
TTITLE0=La vida es un carnaval
TTITLE1=La negra tiene tumbao
TTITLE2=Que le den candela
TTITLE3=Sazón
TTITLE4=Usted abusó
TTITLE5=La guagua
TTITLE6=Oye como va
TTITLE7=LA voz de la experiencia (Con la india)
TTITLE8=Mi vida es cantar
TTITLE9=Cúcala (Live)
TTITLE10=Tu voz (Con Vicente Fernandez)
TTITLE11=Quimbara (Live)
TTITLE12=Guantanamera (Live)
TTITLE13=Por si acaso no regreso
EXTD=YEAR: 2003
EXTT0=
EXTT1=
EXTT2=
EXTT3=
EXTT4=
EXTT5=
EXTT6=
EXTT7=
EXTT8=
EXTT9=
EXTT10=
EXTT11=
EXTT12=
EXTT13=
PLAYORDER=
